<?xml version="1.0" encoding="UTF-8"?>
<svg width="15px" height="21px" viewBox="0 0 15 21" version="1.1" xmlns="http://www.w3.org/2000/svg" xmlns:xlink="http://www.w3.org/1999/xlink">
    <!-- Generator: Sketch 53.2 (72643) - https://sketchapp.com -->
    <title>Group 2</title>
    <desc>Created with Sketch.</desc>
    <g id="Page-1" stroke="none" stroke-width="1" fill="none" fill-rule="evenodd">
        <g id="1.-Login" transform="translate(-48.000000, -531.000000)" fill="#EC7001" fill-rule="nonzero">
            <g id="Group-2" transform="translate(48.000000, 531.000000)">
                <path d="M13.244,8.676 L12.331,8.676 L12.331,5.023 C12.331,2.253 10.077,-1.95399252e-14 7.308,-1.95399252e-14 C4.539,-1.95399252e-14 2.284,2.253 2.284,5.023 L2.284,8.676 L1.37,8.676 C0.615,8.676 1.50990331e-14,9.291 1.50990331e-14,10.046 L1.50990331e-14,18.723 C1.50990331e-14,19.478 0.615,20.093 1.37,20.093 L13.244,20.093 C13.999,20.093 14.614,19.478 14.614,18.723 L14.614,10.046 C14.614,9.291 13.999,8.676 13.244,8.676 Z M3.197,5.023 C3.197,2.757 5.041,0.913 7.307,0.913 C9.573,0.913 11.417,2.757 11.417,5.023 L11.417,8.676 L3.197,8.676 L3.197,5.023 Z M13.7,18.723 C13.7,18.975 13.495,19.18 13.243,19.18 L1.37,19.18 C1.118,19.18 0.913,18.975 0.913,18.723 L0.913,10.046 C0.913,9.794 1.118,9.589 1.37,9.589 L13.244,9.589 C13.496,9.589 13.701,9.794 13.701,10.046 L13.701,18.723 L13.7,18.723 Z" id="Shape"></path>
                <path d="M8.70098198,11.4947822 C8.15198198,11.0577822 7.43798198,10.8997822 6.73998198,11.0627822 C5.92298198,11.2527822 5.26698198,11.9017822 5.06798198,12.7167822 C4.84498198,13.6277822 5.18198198,14.5537822 5.91198198,15.1017822 L5.91198198,16.4807822 C5.91198198,17.2357822 6.52698198,17.8507822 7.28198198,17.8507822 C8.03698198,17.8507822 8.65198198,17.2357822 8.65198198,16.4807822 L8.65198198,15.1017822 C9.22098198,14.6727822 9.56498198,13.9987822 9.56498198,13.2847822 C9.56498198,12.5827822 9.24998198,11.9307822 8.70098198,11.4947822 Z M7.96498198,14.4617822 C7.82498198,14.5437822 7.73798198,14.6937822 7.73798198,14.8567822 L7.73798198,16.4797822 C7.73798198,16.7317822 7.53298198,16.9367822 7.28098198,16.9367822 C7.02898198,16.9367822 6.82398198,16.7317822 6.82398198,16.4797822 L6.82398198,14.8567822 C6.82398198,14.6937822 6.73698198,14.5437822 6.59698198,14.4617822 C6.05598198,14.1467822 5.80398198,13.5467822 5.95398198,12.9327822 C6.06998198,12.4567822 6.46898198,12.0627822 6.94598198,11.9517822 C7.37698198,11.8527822 7.79698198,11.9437822 8.13198198,12.2087822 C8.46198198,12.4707822 8.65098198,12.8617822 8.65098198,13.2827822 C8.65198198,13.7717822 8.39498198,14.2117822 7.96498198,14.4617822 Z" id="Shape"></path>
            </g>
        </g>
    </g>
</svg>