<?xml version="1.0" encoding="UTF-8"?>
<svg width="18px" height="20px" viewBox="0 0 18 20" version="1.1" xmlns="http://www.w3.org/2000/svg" xmlns:xlink="http://www.w3.org/1999/xlink">
    <!-- Generator: Sketch 53.2 (72643) - https://sketchapp.com -->
    <title>noun_User_1780771</title>
    <desc>Created with Sketch.</desc>
    <g id="Page-1" stroke="none" stroke-width="1" fill="none" fill-rule="evenodd">
        <g id="1.-Login" transform="translate(-46.000000, -460.000000)" fill="#ED1C2A">
            <g id="noun_User_1780771" transform="translate(46.000000, 460.000000)">
                <g id="Group">
                    <path d="M9,10.1315789 C11.8909091,10.1315789 14.2363636,7.86842105 14.2363636,5.07894737 C14.2363636,2.28947368 11.8909091,0.0526315789 9,0.0526315789 C6.10909091,0.0526315789 3.76363636,2.31578947 3.76363636,5.10526316 C3.76363636,7.89473684 6.10909091,10.1315789 9,10.1315789 Z M9,1.02631579 C11.3181818,1.02631579 13.2,2.84210526 13.2,5.07894737 C13.2,7.31578947 11.3181818,9.13157895 9,9.13157895 C6.68181818,9.13157895 4.8,7.31578947 4.8,5.07894737 C4.8,2.84210526 6.68181818,1.02631579 9,1.02631579 Z" id="Shape" fill-rule="nonzero"></path>
                    <path d="M9,11.3421053 C8.42727273,11.3421053 7.85454545,11.3947368 7.30909091,11.5 C5.31818182,11.8684211 3.51818182,12.8947368 2.20909091,14.3684211 C0.845454545,15.9210526 0.0818181818,17.8947368 0.0818181818,19.9473684 L1.09090909,19.9473684 C1.09090909,18.1315789 1.77272727,16.3947368 2.97272727,15 C4.14545455,13.6842105 5.72727273,12.7894737 7.5,12.4473684 C7.99090909,12.3684211 8.50909091,12.3157895 9,12.3157895 C13.3636364,12.3157895 16.9090909,15.7368421 16.9090909,19.9473684 L17.9454545,19.9473684 C17.9454545,15.2105263 13.9363636,11.3421053 9,11.3421053 Z" id="Path"></path>
                </g>
            </g>
        </g>
    </g>
</svg>